<?xml version="1.0" standalone="no"?>
<!DOCTYPE svg PUBLIC "-//W3C//DTD SVG 20010904//EN"
 "http://www.w3.org/TR/2001/REC-SVG-20010904/DTD/svg10.dtd">
<svg version="1.0" xmlns="http://www.w3.org/2000/svg"
 width="348.000000pt" height="153.000000pt" viewBox="0 0 348.000000 153.000000"
 preserveAspectRatio="xMidYMid meet">
<metadata>
Created by potrace 1.16, written by Peter Selinger 2001-2019
</metadata>
<g transform="translate(0.000000,153.000000) scale(0.100000,-0.100000)"
fill="#000000" stroke="none">
<path d="M860 1505 c-225 -68 -404 -173 -583 -344 -124 -118 -191 -222 -247
-382 -44 -123 -45 -120 48 -97 111 27 363 35 460 15 189 -41 279 -121 298
-265 l7 -52 31 20 c206 137 482 79 706 -150 67 -67 136 -174 147 -222 6 -29
23 -39 23 -14 0 23 50 108 102 174 109 136 292 255 436 283 112 21 242 -7 331
-71 22 -17 42 -30 44 -30 2 0 0 22 -5 48 -26 127 67 224 262 273 89 23 385 18
483 -8 l77 -20 0 36 c0 54 -53 192 -105 277 -60 96 -185 227 -294 310 -104 79
-294 174 -416 210 -49 14 -98 28 -109 32 -13 3 -4 -13 29 -54 82 -100 93 -154
49 -242 -65 -131 -257 -220 -528 -244 -117 -11 -130 -10 -141 5 -14 19 -38
137 -55 265 -6 46 -14 90 -17 99 -4 9 -23 -28 -47 -93 l-42 -109 -59 -3 -60
-3 -19 53 c-26 75 -65 162 -70 157 -3 -2 -12 -58 -21 -124 -9 -66 -24 -149
-32 -184 l-16 -64 -136 6 c-344 14 -560 148 -561 347 l0 55 71 67 c79 76 76
79 -41 43z"/>
</g>
</svg>
